<svg xmlns="http://www.w3.org/2000/svg" fill="none" viewBox="0 0 31 31" role="img" aria-label="Prologis">
  <path fill="#00c2b2" d="M25.42 16.33c-2.065 1.777-1.196 4.582-.349 6.171 1.064 1.984-.294 4.91-2.15 6.565a15.57 15.57 0 0 0 7.764-13.037c-1.402-.928-3.754-1-5.265.301"/>
  <path fill="#7edb49" d="M14.657 20.8c-2.96-2.542-5.552-1.312-7.32.79-1.791 2.13.677 2.766 4.048 3.542 2.544.585 2.23 4.086 2.465 4.872 3.04-4.969 2.164-8.04.807-9.204"/>
  <path fill="#00dcff" d="M19.416 5.31c5.047 3.968.609 5.994.609 5.994 2.865 2.466 5.764-2.258 8.876.44.823.713 1.35 1.579 1.74 2.507-.523-6.448-4.934-11.784-10.855-13.591-2.325 1.035-3.252 2.386-.37 4.65"/>
  <path fill="#00544e" d="M7.224 18.996c-1.145-3.168.311-4.63 5.283-8.213 6.28-4.53-3.543-2.923.454-7.002 1.416-1.444 3.405-2.566 4.876-3.577A15.5 15.5 0 0 0 15.347 0C6.87 0-.002 6.96-.002 15.544c0 .346.013.685.037 1.025 2.315 2.174 5.183 3.584 7.19 2.427Z"/>
</svg>
